<svg xmlns="http://www.w3.org/2000/svg" width="50px" height="61px" viewBox="0 0 50 61">
    <path fill="#000"
          d="M5,28 L5,10 L8,10 L8,5 L14,5 L14,0 L36,0 L36,5 L42,5 L42,10 L45,10 L45,28 L34,28 L34,16 L28,16 L28,11 L22,11 L22,16 L16,16 L16,28 L5,28 Z"/>
    <path fill="#000"
          d="M0,27 L50,27 L50,61 L0,61 L0,27 Z"/>
    <path fill="#fff"
          d="M8,31 L8,13 L10,13 L10,8 L17,8 L17,3 L33,3 L33,8 L40,8 L40,13 L42,13 L42,31 L37,31 L37,13 L37,13 L30,13 L30,8 L20,8 L20,13 L13,13 L13,31 L8,31 Z"/>
    <path fill="#fff"
          d="M3,30 L47,30 L47,58 L3,58 L3,30 Z"/>
    <path fill="#000"
          d="M22,37 L28,37 L28,51 L22,51 L22,37 Z"/>
</svg>